<?xml version="1.0" encoding="UTF-8" standalone="no"?>
<!DOCTYPE svg PUBLIC "-//W3C//DTD SVG 1.0//EN"
 "http://www.w3.org/TR/2001/REC-SVG-20010904/DTD/svg10.dtd">
<!-- Generated by dot version 2.2.1 (Thu Apr  6 00:32:47 UTC 2006)
     For user: (bbieber) Brett Bieber,,,   Title: class_structure    Pages: 1 -->
<svg width="11071pt" height="222pt"
 viewBox = "-1 -1 11070 221"
 xmlns="http://www.w3.org/2000/svg">
<g id="graph0" class="graph" style="font-family:Times-Roman;font-size:14.00;">
<title>class_structure</title>
<g id="node1" class="node"><title>UNL_UCBCN_Setup_PostInstall</title>
<ellipse cx="5104" cy="30" rx="173" ry="25" style="fill:none;stroke:#1e92ff;"/>
<text text-anchor="middle" style="font-size:24.00;fill:#104f8a;" x="5104" y="38">UNL_UCBCN_Setup_PostInstall</text>
</g>
<g id="node2" class="node"><title>UNL_UCBCN_Account</title>
<ellipse cx="139" cy="154" rx="133" ry="25" style="fill:none;stroke:#1e92ff;"/>
<text text-anchor="middle" style="font-size:24.00;fill:#104f8a;" x="139" y="162">UNL_UCBCN_Account</text>
</g>
<g id="node3" class="node"><title>UNL_UCBCN_Admissioncharge</title>
<ellipse cx="468" cy="154" rx="176" ry="25" style="fill:none;stroke:#1e92ff;"/>
<text text-anchor="middle" style="font-size:24.00;fill:#104f8a;" x="468" y="162">UNL_UCBCN_Admissioncharge</text>
</g>
<g id="node4" class="node"><title>UNL_UCBCN_Event_AdmissionInfo</title>
<ellipse cx="828" cy="154" rx="164" ry="25" style="fill:none;stroke:#1e92ff;"/>
<text text-anchor="middle" style="font-size:24.00;fill:#104f8a;" x="828" y="162">UNL_UCBCN_Event_AdmissionInfo</text>
</g>
<g id="node5" class="node"><title>UNL_UCBCN_Attendancerestriction</title>
<ellipse cx="1208" cy="154" rx="196" ry="25" style="fill:none;stroke:#1e92ff;"/>
<text text-anchor="middle" style="font-size:24.00;fill:#104f8a;" x="1208" y="162">UNL_UCBCN_Attendancerestriction</text>
</g>
<g id="node6" class="node"><title>UNL_UCBCN_Audience</title>
<ellipse cx="1562" cy="154" rx="138" ry="25" style="fill:none;stroke:#1e92ff;"/>
<text text-anchor="middle" style="font-size:24.00;fill:#104f8a;" x="1562" y="162">UNL_UCBCN_Audience</text>
</g>
<g id="node7" class="node"><title>UNL_UCBCN_Calendar</title>
<ellipse cx="1856" cy="154" rx="136" ry="25" style="fill:none;stroke:#1e92ff;"/>
<text text-anchor="middle" style="font-size:24.00;fill:#104f8a;" x="1856" y="162">UNL_UCBCN_Calendar</text>
</g>
<g id="node8" class="node"><title>UNL_UCBCN_Calendar_Event</title>
<ellipse cx="2202" cy="154" rx="190" ry="25" style="fill:none;stroke:#1e92ff;"/>
<text text-anchor="middle" style="font-size:24.00;fill:#104f8a;" x="2202" y="162">UNL_UCBCN_Calendar_Event</text>
</g>
<g id="node9" class="node"><title>UNL_UCBCN_Event_Document</title>
<ellipse cx="2554" cy="154" rx="142" ry="25" style="fill:none;stroke:#1e92ff;"/>
<text text-anchor="middle" style="font-size:24.00;fill:#104f8a;" x="2554" y="162">UNL_UCBCN_Event_Document</text>
</g>
<g id="node10" class="node"><title>UNL_UCBCN_Error</title>
<ellipse cx="10106" cy="154" rx="118" ry="25" style="fill:none;stroke:#1e92ff;"/>
<text text-anchor="middle" style="font-size:24.00;fill:#104f8a;" x="10106" y="162">UNL_UCBCN_Error</text>
</g>
<g id="node11" class="node"><title>UNL_UCBCN_Event</title>
<ellipse cx="2837" cy="154" rx="121" ry="25" style="fill:none;stroke:#1e92ff;"/>
<text text-anchor="middle" style="font-size:24.00;fill:#104f8a;" x="2837" y="162">UNL_UCBCN_Event</text>
</g>
<g id="node12" class="node"><title>UNL_UCBCN_EventInstance</title>
<ellipse cx="10404" cy="154" rx="160" ry="25" style="fill:none;stroke:#1e92ff;"/>
<text text-anchor="middle" style="font-size:24.00;fill:#104f8a;" x="10404" y="162">UNL_UCBCN_EventInstance</text>
</g>
<g id="node13" class="node"><title>UNL_UCBCN_EventListing</title>
<ellipse cx="10666" cy="30" rx="155" ry="25" style="fill:none;stroke:#1e92ff;"/>
<text text-anchor="middle" style="font-size:24.00;fill:#104f8a;" x="10666" y="38">UNL_UCBCN_EventListing</text>
</g>
<g id="node14" class="node"><title>UNL_UCBCN_Event_EventType</title>
<ellipse cx="3173" cy="154" rx="195" ry="25" style="fill:none;stroke:#1e92ff;"/>
<text text-anchor="middle" style="font-size:24.00;fill:#104f8a;" x="3173" y="162">UNL_UCBCN_Event_EventType</text>
</g>
<g id="node15" class="node"><title>UNL_UCBCN_Event_KeyWord</title>
<ellipse cx="3578" cy="154" rx="190" ry="25" style="fill:none;stroke:#1e92ff;"/>
<text text-anchor="middle" style="font-size:24.00;fill:#104f8a;" x="3578" y="162">UNL_UCBCN_Event_KeyWord</text>
</g>
<g id="node16" class="node"><title>UNL_UCBCN_Event_Sponsor</title>
<ellipse cx="3974" cy="154" rx="186" ry="25" style="fill:none;stroke:#1e92ff;"/>
<text text-anchor="middle" style="font-size:24.00;fill:#104f8a;" x="3974" y="162">UNL_UCBCN_Event_Sponsor</text>
</g>
<g id="node17" class="node"><title>UNL_UCBCN_Event_OpenToAudience</title>
<ellipse cx="4396" cy="154" rx="216" ry="25" style="fill:none;stroke:#1e92ff;"/>
<text text-anchor="middle" style="font-size:24.00;fill:#104f8a;" x="4396" y="162">UNL_UCBCN_Event_OpenToAudience</text>
</g>
<g id="node18" class="node"><title>UNL_UCBCN_Event_TargetsAudience</title>
<ellipse cx="4839" cy="154" rx="207" ry="25" style="fill:none;stroke:#1e92ff;"/>
<text text-anchor="middle" style="font-size:24.00;fill:#104f8a;" x="4839" y="162">UNL_UCBCN_Event_TargetsAudience</text>
</g>
<g id="node19" class="node"><title>UNL_UCBCN_Event_DateTime</title>
<ellipse cx="5228" cy="154" rx="162" ry="25" style="fill:none;stroke:#1e92ff;"/>
<text text-anchor="middle" style="font-size:24.00;fill:#104f8a;" x="5228" y="162">UNL_UCBCN_Event_DateTime</text>
</g>
<g id="node20" class="node"><title>UNL_UCBCN_EventType</title>
<ellipse cx="5551" cy="154" rx="141" ry="25" style="fill:none;stroke:#1e92ff;"/>
<text text-anchor="middle" style="font-size:24.00;fill:#104f8a;" x="5551" y="162">UNL_UCBCN_EventType</text>
</g>
<g id="node21" class="node"><title>UNL_UCBCN_Keyword</title>
<ellipse cx="5849" cy="154" rx="137" ry="25" style="fill:none;stroke:#1e92ff;"/>
<text text-anchor="middle" style="font-size:24.00;fill:#104f8a;" x="5849" y="162">UNL_UCBCN_Keyword</text>
</g>
<g id="node22" class="node"><title>UNL_UCBCN_Location</title>
<ellipse cx="6141" cy="154" rx="135" ry="25" style="fill:none;stroke:#1e92ff;"/>
<text text-anchor="middle" style="font-size:24.00;fill:#104f8a;" x="6141" y="162">UNL_UCBCN_Location</text>
</g>
<g id="node23" class="node"><title>UNL_UCBCN_Performer</title>
<ellipse cx="6437" cy="154" rx="141" ry="25" style="fill:none;stroke:#1e92ff;"/>
<text text-anchor="middle" style="font-size:24.00;fill:#104f8a;" x="6437" y="162">UNL_UCBCN_Performer</text>
</g>
<g id="node24" class="node"><title>UNL_UCBCN_Permission</title>
<ellipse cx="6744" cy="154" rx="146" ry="25" style="fill:none;stroke:#1e92ff;"/>
<text text-anchor="middle" style="font-size:24.00;fill:#104f8a;" x="6744" y="162">UNL_UCBCN_Permission</text>
</g>
<g id="node25" class="node"><title>UNL_UCBCN_Event_PublicContact</title>
<ellipse cx="7068" cy="154" rx="158" ry="25" style="fill:none;stroke:#1e92ff;"/>
<text text-anchor="middle" style="font-size:24.00;fill:#104f8a;" x="7068" y="162">UNL_UCBCN_Event_PublicContact</text>
</g>
<g id="node26" class="node"><title>UNL_UCBCN_Event_RelatedEvent</title>
<ellipse cx="7401" cy="154" rx="155" ry="25" style="fill:none;stroke:#1e92ff;"/>
<text text-anchor="middle" style="font-size:24.00;fill:#104f8a;" x="7401" y="162">UNL_UCBCN_Event_RelatedEvent</text>
</g>
<g id="node27" class="node"><title>UNL_UCBCN_Role</title>
<ellipse cx="7691" cy="154" rx="115" ry="25" style="fill:none;stroke:#1e92ff;"/>
<text text-anchor="middle" style="font-size:24.00;fill:#104f8a;" x="7691" y="162">UNL_UCBCN_Role</text>
</g>
<g id="node28" class="node"><title>UNL_UCBCN_Session</title>
<ellipse cx="7955" cy="154" rx="129" ry="25" style="fill:none;stroke:#1e92ff;"/>
<text text-anchor="middle" style="font-size:24.00;fill:#104f8a;" x="7955" y="162">UNL_UCBCN_Session</text>
</g>
<g id="node29" class="node"><title>UNL_UCBCN_Sponsor</title>
<ellipse cx="8236" cy="154" rx="132" ry="25" style="fill:none;stroke:#1e92ff;"/>
<text text-anchor="middle" style="font-size:24.00;fill:#104f8a;" x="8236" y="162">UNL_UCBCN_Sponsor</text>
</g>
<g id="node30" class="node"><title>UNL_UCBCN_Subscription</title>
<ellipse cx="8541" cy="154" rx="153" ry="25" style="fill:none;stroke:#1e92ff;"/>
<text text-anchor="middle" style="font-size:24.00;fill:#104f8a;" x="8541" y="162">UNL_UCBCN_Subscription</text>
</g>
<g id="node31" class="node"><title>UNL_UCBCN_User</title>
<ellipse cx="8829" cy="154" rx="115" ry="25" style="fill:none;stroke:#1e92ff;"/>
<text text-anchor="middle" style="font-size:24.00;fill:#104f8a;" x="8829" y="162">UNL_UCBCN_User</text>
</g>
<g id="node32" class="node"><title>UNL_UCBCN_User_Permission</title>
<ellipse cx="9160" cy="154" rx="196" ry="25" style="fill:none;stroke:#1e92ff;"/>
<text text-anchor="middle" style="font-size:24.00;fill:#104f8a;" x="9160" y="162">UNL_UCBCN_User_Permission</text>
</g>
<g id="node33" class="node"><title>UNL_UCBCN_Webcast</title>
<ellipse cx="9510" cy="154" rx="134" ry="25" style="fill:none;stroke:#1e92ff;"/>
<text text-anchor="middle" style="font-size:24.00;fill:#104f8a;" x="9510" y="162">UNL_UCBCN_Webcast</text>
</g>
<g id="node34" class="node"><title>UNL_UCBCN_Webcastlink</title>
<ellipse cx="9816" cy="154" rx="152" ry="25" style="fill:none;stroke:#1e92ff;"/>
<text text-anchor="middle" style="font-size:24.00;fill:#104f8a;" x="9816" y="162">UNL_UCBCN_Webcastlink</text>
</g>
<g id="node35" class="node"><title>class</title>
<ellipse cx="10879" cy="30" rx="38" ry="25" style="fill:none;stroke:black;"/>
<text text-anchor="middle" style="font-size:24.00;" x="10879" y="38">class</text>
</g>
<g id="node36" class="node"><title>UNL_UCBCN</title>
<ellipse cx="10404" cy="30" rx="87" ry="25" style="fill:none;stroke:black;"/>
<text text-anchor="middle" style="font-size:24.00;" x="10404" y="38">UNL_UCBCN</text>
</g>
<g id="edge22" class="edge"><title>UNL_UCBCN&#45;&gt;UNL_UCBCN_EventInstance</title>
<path style="fill:none;stroke:#36648a;" d="M10404,66C10404,86 10404,110 10404,128"/>
<polygon style="fill:#36648a;stroke:#36648a;" points="10401,66 10404,56 10408,66 10401,66"/>
</g>
<g id="node37" class="node"><title>Exception</title>
<ellipse cx="11000" cy="30" rx="63" ry="25" style="fill:none;stroke:#1e92ff;"/>
<text text-anchor="middle" style="font-size:24.00;fill:#104f8a;" x="11000" y="38">Exception</text>
</g>
<g id="node38" class="node"><title>DB_DataObject</title>
<ellipse cx="5389" cy="30" rx="92" ry="25" style="fill:none;stroke:black;"/>
<text text-anchor="middle" style="font-size:24.00;" x="5389" y="38">DB_DataObject</text>
</g>
<g id="edge2" class="edge"><title>DB_DataObject&#45;&gt;UNL_UCBCN_Account</title>
<path style="fill:none;stroke:#36648a;" d="M5316,51C5306,53 5297,55 5287,56 4185,202 1390,21 282,128 265,130 248,132 231,135"/>
<polygon style="fill:#36648a;stroke:#36648a;" points="5316,48 5326,49 5317,54 5316,48"/>
</g>
<g id="edge4" class="edge"><title>DB_DataObject&#45;&gt;UNL_UCBCN_Admissioncharge</title>
<path style="fill:none;stroke:#36648a;" d="M5316,51C5306,53 5297,55 5287,56 4267,192 1681,49 654,128 633,130 610,132 588,135"/>
<polygon style="fill:#36648a;stroke:#36648a;" points="5316,48 5326,49 5317,54 5316,48"/>
</g>
<g id="edge6" class="edge"><title>DB_DataObject&#45;&gt;UNL_UCBCN_Event_AdmissionInfo</title>
<path style="fill:none;stroke:#36648a;" d="M5316,51C5306,53 5297,55 5287,56 4344,182 1952,50 1002,128 982,130 961,132 940,135"/>
<polygon style="fill:#36648a;stroke:#36648a;" points="5316,48 5326,49 5317,54 5316,48"/>
</g>
<g id="edge8" class="edge"><title>DB_DataObject&#45;&gt;UNL_UCBCN_Attendancerestriction</title>
<path style="fill:none;stroke:#36648a;" d="M5316,51C5306,53 5297,55 5287,56 4434,172 2273,67 1414,128 1390,130 1365,132 1341,135"/>
<polygon style="fill:#36648a;stroke:#36648a;" points="5316,48 5326,49 5317,54 5316,48"/>
</g>
<g id="edge10" class="edge"><title>DB_DataObject&#45;&gt;UNL_UCBCN_Audience</title>
<path style="fill:none;stroke:#36648a;" d="M5316,51C5306,53 5297,55 5287,56 4500,163 2502,51 1710,128 1693,130 1675,132 1657,135"/>
<polygon style="fill:#36648a;stroke:#36648a;" points="5316,48 5326,49 5317,54 5316,48"/>
</g>
<g id="edge12" class="edge"><title>DB_DataObject&#45;&gt;UNL_UCBCN_Calendar</title>
<path style="fill:none;stroke:#36648a;" d="M5316,51C5306,53 5297,55 5287,56 4564,155 2729,56 2002,128 1985,130 1967,132 1950,135"/>
<polygon style="fill:#36648a;stroke:#36648a;" points="5316,48 5326,49 5317,54 5316,48"/>
</g>
<g id="edge14" class="edge"><title>DB_DataObject&#45;&gt;UNL_UCBCN_Calendar_Event</title>
<path style="fill:none;stroke:#36648a;" d="M5316,51C5306,53 5297,55 5287,56 4652,144 3042,79 2402,128 2379,130 2355,132 2332,135"/>
<polygon style="fill:#36648a;stroke:#36648a;" points="5316,48 5326,49 5317,54 5316,48"/>
</g>
<g id="edge16" class="edge"><title>DB_DataObject&#45;&gt;UNL_UCBCN_Event_Document</title>
<path style="fill:none;stroke:#36648a;" d="M5316,51C5306,53 5297,55 5287,56 4151,214 3848,15 2706,128 2688,130 2670,132 2652,135"/>
<polygon style="fill:#36648a;stroke:#36648a;" points="5316,48 5326,49 5317,54 5316,48"/>
</g>
<g id="edge20" class="edge"><title>DB_DataObject&#45;&gt;UNL_UCBCN_Event</title>
<path style="fill:none;stroke:#36648a;" d="M5316,51C5306,53 5297,55 5287,56 4266,200 3993,12 2968,128 2953,130 2937,132 2921,135"/>
<polygon style="fill:#36648a;stroke:#36648a;" points="5316,48 5326,49 5317,54 5316,48"/>
</g>
<g id="edge24" class="edge"><title>DB_DataObject&#45;&gt;UNL_UCBCN_Event_EventType</title>
<path style="fill:none;stroke:#36648a;" d="M5316,51C5306,53 5297,55 5287,56 4447,178 4225,59 3378,128 3355,130 3331,133 3308,135"/>
<polygon style="fill:#36648a;stroke:#36648a;" points="5316,48 5326,49 5317,54 5316,48"/>
</g>
<g id="edge26" class="edge"><title>DB_DataObject&#45;&gt;UNL_UCBCN_Event_KeyWord</title>
<path style="fill:none;stroke:#36648a;" d="M5316,51C5306,53 5297,55 5287,56 4623,156 4447,69 3778,128 3756,130 3732,133 3709,135"/>
<polygon style="fill:#36648a;stroke:#36648a;" points="5316,48 5326,49 5317,54 5316,48"/>
</g>
<g id="edge28" class="edge"><title>DB_DataObject&#45;&gt;UNL_UCBCN_Event_Sponsor</title>
<path style="fill:none;stroke:#36648a;" d="M5315,51C5305,52 5296,55 5287,56 4796,134 4666,80 4170,128 4149,130 4126,133 4104,136"/>
<polygon style="fill:#36648a;stroke:#36648a;" points="5315,48 5325,49 5316,54 5315,48"/>
</g>
<g id="edge30" class="edge"><title>DB_DataObject&#45;&gt;UNL_UCBCN_Event_OpenToAudience</title>
<path style="fill:none;stroke:#36648a;" d="M5314,50C5305,53 5296,55 5287,56 4995,109 4918,96 4622,128 4599,131 4576,134 4552,136"/>
<polygon style="fill:#36648a;stroke:#36648a;" points="5314,47 5324,48 5315,53 5314,47"/>
</g>
<g id="edge32" class="edge"><title>DB_DataObject&#45;&gt;UNL_UCBCN_Event_TargetsAudience</title>
<path style="fill:none;stroke:#36648a;" d="M5312,50C5304,53 5295,55 5287,56 5170,84 5036,113 4945,132"/>
<polygon style="fill:#36648a;stroke:#36648a;" points="5312,47 5322,48 5313,53 5312,47"/>
</g>
<g id="edge34" class="edge"><title>DB_DataObject&#45;&gt;UNL_UCBCN_Event_DateTime</title>
<path style="fill:none;stroke:#36648a;" d="M5350,60C5322,82 5286,109 5261,129"/>
<polygon style="fill:#36648a;stroke:#36648a;" points="5348,57 5358,54 5352,63 5348,57"/>
</g>
<g id="edge36" class="edge"><title>DB_DataObject&#45;&gt;UNL_UCBCN_EventType</title>
<path style="fill:none;stroke:#36648a;" d="M5429,60C5457,82 5493,109 5519,129"/>
<polygon style="fill:#36648a;stroke:#36648a;" points="5427,63 5421,54 5431,57 5427,63"/>
</g>
<g id="edge38" class="edge"><title>DB_DataObject&#45;&gt;UNL_UCBCN_Keyword</title>
<path style="fill:none;stroke:#36648a;" d="M5465,51C5550,73 5685,110 5771,133"/>
<polygon style="fill:#36648a;stroke:#36648a;" points="5464,54 5455,48 5466,48 5464,54"/>
</g>
<g id="edge40" class="edge"><title>DB_DataObject&#45;&gt;UNL_UCBCN_Location</title>
<path style="fill:none;stroke:#36648a;" d="M5480,45C5599,63 5813,98 5996,128 6011,131 6028,133 6043,136"/>
<polygon style="fill:#36648a;stroke:#36648a;" points="5479,48 5470,43 5480,42 5479,48"/>
</g>
<g id="edge42" class="edge"><title>DB_DataObject&#45;&gt;UNL_UCBCN_Performer</title>
<path style="fill:none;stroke:#36648a;" d="M5487,39C5653,54 5997,88 6286,128 6302,130 6320,133 6336,136"/>
<polygon style="fill:#36648a;stroke:#36648a;" points="5487,42 5477,38 5487,36 5487,42"/>
</g>
<g id="edge44" class="edge"><title>DB_DataObject&#45;&gt;UNL_UCBCN_Permission</title>
<path style="fill:none;stroke:#36648a;" d="M5490,36C5697,47 6184,79 6588,128 6605,130 6623,133 6641,136"/>
<polygon style="fill:#36648a;stroke:#36648a;" points="5490,39 5480,35 5490,33 5490,39"/>
</g>
<g id="edge46" class="edge"><title>DB_DataObject&#45;&gt;UNL_UCBCN_Event_PublicContact</title>
<path style="fill:none;stroke:#36648a;" d="M5491,33C5736,43 6373,71 6900,128 6919,130 6938,133 6957,136"/>
<polygon style="fill:#36648a;stroke:#36648a;" points="5491,36 5481,33 5491,29 5491,36"/>
</g>
<g id="edge48" class="edge"><title>DB_DataObject&#45;&gt;UNL_UCBCN_Event_RelatedEvent</title>
<path style="fill:none;stroke:#36648a;" d="M5492,32C5773,38 6574,59 7236,128 7255,130 7274,133 7293,136"/>
<polygon style="fill:#36648a;stroke:#36648a;" points="5492,35 5482,32 5492,28 5492,35"/>
</g>
<g id="edge50" class="edge"><title>DB_DataObject&#45;&gt;UNL_UCBCN_Role</title>
<path style="fill:none;stroke:#36648a;" d="M5492,32C5867,42 7158,76 7566,128 7580,130 7596,133 7610,136"/>
<polygon style="fill:#36648a;stroke:#36648a;" points="5492,35 5482,32 5492,28 5492,35"/>
</g>
<g id="edge52" class="edge"><title>DB_DataObject&#45;&gt;UNL_UCBCN_Session</title>
<path style="fill:none;stroke:#36648a;" d="M5492,32C5893,42 7355,76 7816,128 7832,130 7849,133 7865,136"/>
<polygon style="fill:#36648a;stroke:#36648a;" points="5492,35 5482,32 5492,28 5492,35"/>
</g>
<g id="edge54" class="edge"><title>DB_DataObject&#45;&gt;UNL_UCBCN_Sponsor</title>
<path style="fill:none;stroke:#36648a;" d="M5492,32C5923,40 7576,71 8094,128 8111,130 8128,132 8145,135"/>
<polygon style="fill:#36648a;stroke:#36648a;" points="5492,35 5482,32 5492,28 5492,35"/>
</g>
<g id="edge56" class="edge"><title>DB_DataObject&#45;&gt;UNL_UCBCN_Subscription</title>
<path style="fill:none;stroke:#36648a;" d="M5492,31C5950,40 7800,73 8378,128 8397,130 8417,132 8436,135"/>
<polygon style="fill:#36648a;stroke:#36648a;" points="5492,34 5482,31 5492,27 5492,34"/>
</g>
<g id="edge58" class="edge"><title>DB_DataObject&#45;&gt;UNL_UCBCN_User</title>
<path style="fill:none;stroke:#36648a;" d="M5492,31C5981,34 8061,53 8704,128 8719,130 8735,132 8750,135"/>
<polygon style="fill:#36648a;stroke:#36648a;" points="5492,34 5482,31 5492,27 5492,34"/>
</g>
<g id="edge60" class="edge"><title>DB_DataObject&#45;&gt;UNL_UCBCN_User_Permission</title>
<path style="fill:none;stroke:#36648a;" d="M5492,31C6002,39 8255,75 8954,128 8977,130 9002,133 9025,135"/>
<polygon style="fill:#36648a;stroke:#36648a;" points="5492,34 5482,31 5492,27 5492,34"/>
</g>
<g id="edge62" class="edge"><title>DB_DataObject&#45;&gt;UNL_UCBCN_Webcast</title>
<path style="fill:none;stroke:#36648a;" d="M5492,30C6038,33 8583,49 9366,128 9383,130 9401,132 9418,135"/>
<polygon style="fill:#36648a;stroke:#36648a;" points="5492,33 5482,30 5492,26 5492,33"/>
</g>
<g id="edge64" class="edge"><title>DB_DataObject&#45;&gt;UNL_UCBCN_Webcastlink</title>
<path style="fill:none;stroke:#36648a;" d="M5492,30C6061,33 8809,51 9654,128 9673,130 9692,132 9711,135"/>
<polygon style="fill:#36648a;stroke:#36648a;" points="5492,33 5482,30 5492,26 5492,33"/>
</g>
<g id="node47" class="node"><title>PEAR_Error</title>
<ellipse cx="10106" cy="30" rx="76" ry="25" style="fill:none;stroke:black;"/>
<text text-anchor="middle" style="font-size:24.00;" x="10106" y="38">PEAR_Error</text>
</g>
<g id="edge18" class="edge"><title>PEAR_Error&#45;&gt;UNL_UCBCN_Error</title>
<path style="fill:none;stroke:#36648a;" d="M10106,66C10106,86 10106,110 10106,128"/>
<polygon style="fill:#36648a;stroke:#36648a;" points="10103,66 10106,56 10110,66 10103,66"/>
</g>
</g>
</svg>
